<svg id="Group_195" data-name="Group 195" xmlns="http://www.w3.org/2000/svg" xmlns:xlink="http://www.w3.org/1999/xlink" width="50" height="40.852" viewBox="0 0 50 40.852">
  <defs>
    <clipPath id="clip-path">
      <rect id="Rectangle_40" data-name="Rectangle 40" width="50" height="40.852" fill="#73a133"/>
    </clipPath>
  </defs>
  <g id="Group_195-2" data-name="Group 195" clip-path="url(#clip-path)">
    <path id="Path_42" data-name="Path 42" d="M0,20.029a1.784,1.784,0,0,1,1.968-1.081c.462.04.931.007,1.452.007a13.144,13.144,0,0,1,4.359-16.7A13.254,13.254,0,0,1,25.03,4.412a13.059,13.059,0,0,1,9.305-4.4,12.655,12.655,0,0,1,8.04,2.357A12.793,12.793,0,0,1,47.55,9.878a13.109,13.109,0,0,1-.974,9.078c.657,0,1.253,0,1.849,0a1.468,1.468,0,1,1-.018,2.927c-1.155.005-2.311-.012-3.466.013a1,1,0,0,0-.628.254Q35.257,31.183,26.22,40.235a1.506,1.506,0,0,1-2.417.019Q14.742,31.191,5.676,22.134A.934.934,0,0,0,5.09,21.9c-1.041-.023-2.085-.05-3.124,0A1.826,1.826,0,0,1,0,20.811ZM24.879,22.2c.125-.207.218-.354.3-.5q2.194-3.829,4.387-7.659a1.486,1.486,0,0,1,2.742-.078q1.48,2.325,2.943,4.661a.635.635,0,0,0,.623.341q3.442-.019,6.883,0a.644.644,0,0,0,.625-.342A10.148,10.148,0,0,0,29.4,4.554a27.833,27.833,0,0,0-3.276,2.9,1.493,1.493,0,0,1-2.245-.007c-.558-.547-1.1-1.114-1.663-1.651A9.923,9.923,0,0,0,13.81,3.023a10.167,10.167,0,0,0-7.194,15.6.654.654,0,0,0,.628.34c1.529-.015,3.059-.021,4.588,0a.61.61,0,0,0,.672-.453c1.119-2.7,2.258-5.394,3.391-8.09.025-.06.049-.12.073-.181A1.457,1.457,0,0,1,17.355,9.2a1.482,1.482,0,0,1,1.411.943q1.986,3.94,3.987,7.871L24.879,22.2m.1,14.961L40.262,21.885h-.436c-1.676,0-3.353-.005-5.029,0a1.558,1.558,0,0,1-1.424-.776c-.6-.964-1.216-1.925-1.827-2.886-.163-.257-.333-.511-.524-.8-.123.205-.216.356-.3.51l-4.459,7.788c-.024.042-.052.083-.075.126a1.486,1.486,0,0,1-1.433.915,1.526,1.526,0,0,1-1.344-.975q-2.756-5.464-5.53-10.918c-.108-.213-.22-.425-.361-.7-.094.206-.165.35-.227.5Q16.013,17.7,14.74,20.734a1.551,1.551,0,0,1-1.714,1.151c-.977,0-1.953,0-2.93,0-.135,0-.269.019-.368.026L24.98,37.164" transform="translate(0 0)" fill="#73a133"/>
  </g>
</svg>
