<svg id="Group_190" data-name="Group 190" xmlns="http://www.w3.org/2000/svg" xmlns:xlink="http://www.w3.org/1999/xlink" width="50" height="49.991" viewBox="0 0 50 49.991">
  <defs>
    <clipPath id="clip-path">
      <rect id="Rectangle_39" data-name="Rectangle 39" width="50" height="49.991" fill="#73a133"/>
    </clipPath>
  </defs>
  <g id="Group_189" data-name="Group 189" clip-path="url(#clip-path)">
    <path id="Path_40" data-name="Path 40" d="M34.862,49.992H3.905a.843.843,0,0,0-.177-.07A4.329,4.329,0,0,1,.975,48.332,5.248,5.248,0,0,1,0,46.086V45.012a1.5,1.5,0,0,0,.083-.221,4.4,4.4,0,0,1,2.611-3.243.581.581,0,0,0,.226-.45c.012-3.834.007-7.669.016-11.5a.486.486,0,0,0-.32-.512,6.386,6.386,0,0,1-1.14-.733A4.683,4.683,0,0,1,0,25.681V24.509a1.5,1.5,0,0,0,.083-.221,4.4,4.4,0,0,1,2.611-3.243.581.581,0,0,0,.226-.45c.012-3.9.007-7.8.016-11.7a.486.486,0,0,0-.32-.512,6.379,6.379,0,0,1-1.14-.733A4.684,4.684,0,0,1,0,4.982V3.908A9.352,9.352,0,0,1,.444,2.526,4.363,4.363,0,0,1,4.666,0H32.831c.325,0,.651-.005.976,0a4.437,4.437,0,0,1,4.362,3.433A4.351,4.351,0,0,1,35.635,8.4c-.269.127-.287.294-.287.531q.006,4.246,0,8.492c0,.14.019.28.024.348,1.093.24,2.145.392,3.149.7A16.11,16.11,0,0,1,49.6,37.407a16.077,16.077,0,0,1-11.2,11.909c-1.149.322-2.352.456-3.53.676m-1.129-2.934A13.18,13.18,0,1,0,20.617,33.684,13.182,13.182,0,0,0,33.733,47.058M32.385,17.737V8.829H5.885V20.685c.119.006.213.015.307.015q9.031,0,18.061-.009a1.679,1.679,0,0,0,.669-.222c1.285-.616,2.529-1.339,3.858-1.837a30.633,30.633,0,0,1,3.606-.9M5.892,29.5V41.185H19.43a16.747,16.747,0,0,1-1.674-5.743,16.923,16.923,0,0,1,.517-5.939ZM19.117,5.861H33.472c.179,0,.359.008.537-.01a1.453,1.453,0,0,0,1.185-2.089,1.567,1.567,0,0,0-1.579-.834q-14.476.01-28.953.005a3.473,3.473,0,0,0-.439.014,1.46,1.46,0,0,0,0,2.9,4.862,4.862,0,0,0,.585.014H19.117m5.287,41.2c-.91-.867-1.813-1.7-2.678-2.568a1.064,1.064,0,0,0-.835-.369q-8.076.018-16.152.009a4.5,4.5,0,0,0-.488.011,1.459,1.459,0,0,0-.008,2.9,4.319,4.319,0,0,0,.488.012H24.4Zm-3.117-23.4a.26.26,0,0,0-.059-.018q-8.418,0-16.835,0a1.459,1.459,0,1,0,.051,2.917q7.344.012,14.689,0a.549.549,0,0,0,.4-.171c.591-.889,1.158-1.794,1.75-2.722" transform="translate(0.001 -0.001)" fill="#73a133"/>
    <path id="Path_41" data-name="Path 41" d="M224.577,213.611a7.34,7.34,0,0,1-7.307-7.2,8.456,8.456,0,0,1,.845-3.431,55.829,55.829,0,0,1,5.236-9.176,1.418,1.418,0,0,1,2.424-.057,51.7,51.7,0,0,1,5.635,10.115,7.24,7.24,0,0,1-6.834,9.751m.017-16.392c-.274.448-.512.8-.708,1.165-1.082,2.033-2.2,4.048-3.213,6.115a4.06,4.06,0,0,0,.656,4.713,4.376,4.376,0,0,0,5.464.858,4.242,4.242,0,0,0,1.956-4.933,44.805,44.805,0,0,0-4.155-7.918" transform="translate(-190.702 -169.48)" fill="#73a133"/>
  </g>
</svg>
