<svg id="Group_160" data-name="Group 160" xmlns="http://www.w3.org/2000/svg" xmlns:xlink="http://www.w3.org/1999/xlink" width="48.943" height="50" viewBox="0 0 48.943 50">
  <defs>
    <clipPath id="clip-path">
      <rect id="Rectangle_36" data-name="Rectangle 36" width="48.943" height="50" fill="#73a133"/>
    </clipPath>
  </defs>
  <g id="Group_160-2" data-name="Group 160" clip-path="url(#clip-path)">
    <path id="Path_29" data-name="Path 29" d="M42.766,63.683H23.6v-5.3q0-7.034,0-14.069a1.642,1.642,0,0,0-.415-1.281,1.532,1.532,0,0,0-1.215-.3l-.5.041a30.92,30.92,0,0,0-4.163.528,21.905,21.905,0,0,0-13.79,9.768,21.735,21.735,0,0,0-3,16.5,22.536,22.536,0,0,0,9.08,13.682,22.324,22.324,0,0,0,12.774,3.953,23.621,23.621,0,0,0,3.217-.221A22.315,22.315,0,0,0,44.562,65.512a1.465,1.465,0,0,0-1.8-1.829M21.007,64.5c0,1.382.4,1.782,1.777,1.782H41.912A19.648,19.648,0,0,1,7.685,78.133,19.626,19.626,0,0,1,21.006,45.407v5.474q0,6.807,0,13.614" transform="translate(0 -37.208)" fill="#73a133"/>
    <path id="Path_30" data-name="Path 30" d="M220.036,18.969A22.268,22.268,0,0,0,198.512,0a1.843,1.843,0,0,0-1.388.365,1.794,1.794,0,0,0-.38,1.353q0,3.821,0,7.641v6.023q0,3.815,0,7.63c0,1.182.46,1.643,1.638,1.643h20.2a1.764,1.764,0,0,0,1.323-.388,1.637,1.637,0,0,0,.364-1.226,32.5,32.5,0,0,0-.23-4.074m-20.661,3.047V2.683a19.618,19.618,0,0,1,18.3,19.332Z" transform="translate(-171.323 -0.001)" fill="#73a133"/>
    <path id="Path_31" data-name="Path 31" d="M45.78,109.048A13.766,13.766,0,0,1,47.442,100,14.11,14.11,0,0,1,55.6,93.369a1.285,1.285,0,0,0-.756-2.456,16.733,16.733,0,0,0,4.477,32.722q.169,0,.336,0a16.841,16.841,0,0,0,16.113-11.89,1.247,1.247,0,0,0-.943-1.553l-.04-.008a1.254,1.254,0,0,0-1.451.848,14.336,14.336,0,0,1-14.665,9.959A14.164,14.164,0,0,1,45.78,109.048" transform="translate(-37.468 -79.12)" fill="#73a133"/>
    <path id="Path_32" data-name="Path 32" d="M242.674,55.252c.475-.1.845.168,1.1.806a.808.808,0,0,0,.056.109l.073.132h2.469l-.011-.2a3.149,3.149,0,0,0-1.253-2.576c-.749-.519-1.2-.878-.955-1.686l.074-.249h-2.67s.134,1.212.022,1.265a3.667,3.667,0,0,0-2.163,3.96,3.53,3.53,0,0,0,3.336,2.835.969.969,0,0,1,1,.843.907.907,0,0,1-1.783.287c-.021-.056-.04-.113-.059-.168l-.071-.207h-2.509l.012.2a3.121,3.121,0,0,0,1.489,2.747c.626.354.855,1.786.855,1.786H244s.128-1.348.478-1.522a3.382,3.382,0,0,0,1.816-3.726,3.511,3.511,0,0,0-3.268-2.831c-.679-.055-1.03-.332-1.072-.846a.924.924,0,0,1,.723-.957" transform="translate(-208.411 -44.919)" fill="#73a133"/>
  </g>
</svg>
