<svg id="Group_259" data-name="Group 259" xmlns="http://www.w3.org/2000/svg" xmlns:xlink="http://www.w3.org/1999/xlink" width="50" height="45.716" viewBox="0 0 50 45.716">
  <defs>
    <clipPath id="clip-path">
      <rect id="Rectangle_88" data-name="Rectangle 88" width="50" height="45.716" fill="#73a133"/>
    </clipPath>
  </defs>
  <g id="Group_259-2" data-name="Group 259" clip-path="url(#clip-path)">
    <path id="Path_66" data-name="Path 66" d="M49.993,15.267q0-1.427,0-2.854A3.5,3.5,0,0,0,46.183,8.6q-3.047,0-6.093,0h-3c0-.121,0-.228,0-.336,0-.3,0-.6,0-.893,0-.651.005-1.324-.019-1.988A5.591,5.591,0,0,0,31.627.025C27.089-.017,22.456,0,18.367.022a5.245,5.245,0,0,0-3.525,1.387,5.542,5.542,0,0,0-1.934,4.345c0,.7,0,1.4,0,2.123V8.6H9.889c-2.042,0-4.154,0-6.232,0A3.477,3.477,0,0,0,.005,12.265Q0,14.409,0,16.554q0,2.014,0,4.027A3.765,3.765,0,0,0,.8,22.94a1.244,1.244,0,0,1,.251.681c.01,3.661.012,7.382.013,10.982q0,3.606.006,7.212a5.159,5.159,0,0,0,.154,1.365,3.491,3.491,0,0,0,3.567,2.536H45.349c.06,0,.119,0,.179,0A3.285,3.285,0,0,0,48.5,43.82a4.714,4.714,0,0,0,.414-1.956c.018-3.919.019-7.9.02-11.757q0-3.244,0-6.489a.906.906,0,0,1,.115-.513A3.824,3.824,0,0,0,50,20.476c-.01-1.736-.008-3.5-.007-5.209m-19.927-6.7H19.923V7.038H30.066ZM32.8,6.061c0-1.286-.456-1.741-1.737-1.742H18.92c-1.274,0-1.726.458-1.727,1.751,0,.645,0,1.29,0,1.95v.541h-1.6V6.97c0-.406,0-.812,0-1.219A2.928,2.928,0,0,1,18.529,2.7c4.388-.035,8.744-.035,12.948,0a2.926,2.926,0,0,1,2.93,3.055c0,.7,0,1.4,0,2.11q0,.352,0,.706H32.8V8.012c0-.657,0-1.3,0-1.951M9.162,21.026h1.56v3.665H9.162Zm30.131-.01h1.526V24.7H39.293ZM3.768,24.254H6.455c0,.016,0,.032,0,.048,0,.224,0,.441,0,.657a2.4,2.4,0,0,0,2.391,2.474c.727.03,1.463.03,2.189,0a2.425,2.425,0,0,0,2.405-2.417c.011-.233.008-.461.005-.7v-.067h23.1V24.3c0,.229,0,.445,0,.664a2.437,2.437,0,0,0,2.464,2.47c.7.021,1.4.021,2.083,0a2.414,2.414,0,0,0,2.44-2.481c0-.216,0-.431,0-.656v-.053h2.688v4.9q0,6.356,0,12.712c0,.955-.22,1.175-1.177,1.175H4.939c-.952,0-1.171-.221-1.171-1.18q0-6.5,0-13ZM44.3,21.5l-.756,0c0-.028,0-.055,0-.082,0-.231,0-.45,0-.666a2.4,2.4,0,0,0-2.408-2.459c-.676-.024-1.394-.024-2.134,0a2.424,2.424,0,0,0-2.443,2.436c-.009.222-.007.441,0,.673,0,.023,0,.045,0,.068h-23.1c0-.188,0-.378,0-.568a2.449,2.449,0,0,0-2.589-2.613c-.731-.008-1.325-.008-1.872,0a2.425,2.425,0,0,0-2.529,2.553c0,.194,0,.387,0,.59V21.5a.587.587,0,0,1-.093.01l-.4,0c-.778,0-1.581.008-2.371,0-.609-.008-.906-.3-.908-.878-.008-3-.008-5.772,0-8.465a.786.786,0,0,1,.845-.848c.056,0,.112,0,.168,0H46.2c.084,0,.169,0,.253,0a.8.8,0,0,1,.859.834c.01,2.661.01,5.446,0,8.516a.742.742,0,0,1-.7.825c-.761.022-1.516.017-2.316.013" transform="translate(0 0)" fill="#73a133"/>
  </g>
</svg>
