<svg id="Group_159" data-name="Group 159" xmlns="http://www.w3.org/2000/svg" xmlns:xlink="http://www.w3.org/1999/xlink" width="49.919" height="50" viewBox="0 0 49.919 50">
  <defs>
    <clipPath id="clip-path">
      <rect id="Rectangle_35" data-name="Rectangle 35" width="49.919" height="50" fill="#73a133"/>
    </clipPath>
  </defs>
  <g id="Group_159-2" data-name="Group 159" clip-path="url(#clip-path)">
    <path id="Path_28" data-name="Path 28" d="M44.834,50H5.068a1.883,1.883,0,0,1-1.086-1.967c.023-7.972.011-15.945.022-23.917a.759.759,0,0,0-.431-.762,7.206,7.206,0,0,1-3.348-4.49C.137,18.537.074,18.2,0,17.871V10.84c.023-.021.056-.037.069-.063C1.649,7.6,3.234,4.428,4.8,1.246A2.406,2.406,0,0,1,5.945,0H43.957a4.726,4.726,0,0,1,.988,1c1.6,3.12,3.155,6.262,4.709,9.406a2.223,2.223,0,0,1,.237.928c.021,1.935.049,3.871,0,5.805a7.152,7.152,0,0,1-3.576,6.217.769.769,0,0,0-.416.769c.009,7.969,0,15.937.02,23.906A1.886,1.886,0,0,1,44.834,50M42.958,24.424A7.478,7.478,0,0,1,36.706,21.5a7.421,7.421,0,0,1-11.754.043A7.422,7.422,0,0,1,13.2,21.5a7.463,7.463,0,0,1-6.249,2.926V47.037h8.745v-.565c0-2.8,0-5.6,0-8.4a13.9,13.9,0,0,1,.088-1.508A9.253,9.253,0,0,1,34.21,37.927q.008,4.3,0,8.594c0,.173,0,.345,0,.513h8.747ZM46.015,9.751a1.233,1.233,0,0,0-.049-.2c-1.057-2.123-2.109-4.248-3.188-6.359a.7.7,0,0,0-.535-.254q-17.3-.018-34.591-.017a.56.56,0,0,0-.6.355c-1,2.041-2.025,4.072-3.039,6.108a3.461,3.461,0,0,0-.132.365ZM31.271,47.05c.006-.134.015-.229.015-.324,0-3.008.005-6.017-.007-9.025a5.9,5.9,0,0,0-.143-1.256,6.329,6.329,0,0,0-12.518,1.382c-.009,2.927,0,5.854,0,8.781,0,.141.014.282.023.441ZM11.695,12.729H2.927c0,1.512,0,2.99,0,4.468a4.245,4.245,0,0,0,.092.773,4.412,4.412,0,0,0,4.523,3.508,4.318,4.318,0,0,0,4.125-3.784c.114-1.633.023-3.28.023-4.964m14.723-.009c0,1.53-.028,3.024.006,4.517a4.4,4.4,0,0,0,4.262,4.243,4.351,4.351,0,0,0,4.508-4.069c.077-1.492.028-2.991.034-4.486a1.229,1.229,0,0,0-.037-.205ZM14.7,12.711c0,1.6-.061,3.162.014,4.716a4.347,4.347,0,0,0,4.133,4.05,4.262,4.262,0,0,0,4.533-3.631,49.885,49.885,0,0,0,.1-5.063c0-.024-.04-.048-.061-.073Zm23.463.01c0,1.191-.011,2.358,0,3.524a9.046,9.046,0,0,0,.11,1.746,4.4,4.4,0,0,0,8.7-.9c.016-1.2,0-2.407,0-3.61v-.757Z" fill="#73a133"/>
  </g>
</svg>
