<svg id="Group_261" data-name="Group 261" xmlns="http://www.w3.org/2000/svg" xmlns:xlink="http://www.w3.org/1999/xlink" width="70" height="69.995" viewBox="0 0 70 69.995">
  <defs>
    <clipPath id="clip-path">
      <rect id="Rectangle_89" data-name="Rectangle 89" width="70" height="69.995" fill="#73a133"/>
    </clipPath>
  </defs>
  <g id="Group_260" data-name="Group 260" clip-path="url(#clip-path)">
    <path id="Path_67" data-name="Path 67" d="M34.06,55.289c-.354-.048-.71-.091-1.066-.133-.806-.1-1.639-.2-2.431-.366a20.277,20.277,0,0,1,3.019-40.015c2.089-.164,3.022-1.171,3.024-3.265,0-.828,0-1.655-.007-2.483-.009-1.793-.018-3.648.027-5.467A3.369,3.369,0,0,0,34.645.039L34.558,0H32.523l-.048.011c-.066.015-.132.032-.2.049a2.032,2.032,0,0,1-.319.066,3.694,3.694,0,0,0-3.462,3.2c-.046.278-.09.557-.134.835-.118.747-.241,1.519-.394,2.262a.494.494,0,0,1-.183.206,30.681,30.681,0,0,0-7.722,3.214.491.491,0,0,1-.279-.021c-.536-.353-1.069-.737-1.585-1.11-.348-.251-.7-.5-1.049-.747a3.531,3.531,0,0,0-4.6.212C11,9.6,9.536,11.069,8.2,12.53A3.527,3.527,0,0,0,8,17.18c.712,1.018,1.272,1.8,1.816,2.528.146.2.139.225.039.388A27.15,27.15,0,0,0,6.689,27.71c-.062.247-.1.27-.327.3-.521.073-1.045.163-1.552.251-.408.07-.829.143-1.243.206A3.707,3.707,0,0,0,.133,32.157a4.043,4.043,0,0,1-.077.483c-.017.087-.034.173-.049.26L0,37.026l.006.076c.015.087.032.174.049.261a4.087,4.087,0,0,1,.077.486A3.728,3.728,0,0,0,3.5,41.532c.4.062.8.131,1.192.2.568.1,1.156.2,1.741.281.168.023.182.025.234.232a27.769,27.769,0,0,0,3.2,7.683c.1.169.095.191-.012.333C9.3,51,8.708,51.823,8,52.848A3.533,3.533,0,0,0,8.218,57.5c1.23,1.336,2.622,2.731,4.257,4.266a3.585,3.585,0,0,0,4.707.258c.833-.58,1.722-1.208,2.586-1.862.136-.1.147-.111.327,0a27.494,27.494,0,0,0,7.619,3.174c.241.06.262.1.3.334.109.769.239,1.545.365,2.3l.118.708a3.69,3.69,0,0,0,3.182,3.171c.629.08,1.277.13,1.925.15l.121,0a2.89,2.89,0,0,0,2.055-.76,2.8,2.8,0,0,0,.819-2.047c.03-2.923.03-5.99,0-9.117a2.7,2.7,0,0,0-2.534-2.783M10.755,54.5l.445-.627c.595-.838,1.21-1.7,1.83-2.543a1.821,1.821,0,0,0,.075-2.25A25.416,25.416,0,0,1,9.55,40.509a1.787,1.787,0,0,0-1.6-1.5c-.556-.087-1.11-.182-1.665-.276-.762-.129-1.55-.263-2.33-.377-.506-.074-.61-.289-.613-.614-.017-1.813-.016-3.668,0-5.513,0-.3.1-.509.571-.58.744-.112,1.5-.238,2.225-.36.611-.1,1.222-.2,1.834-.3a1.738,1.738,0,0,0,1.56-1.45,25.583,25.583,0,0,1,3.577-8.636,1.78,1.78,0,0,0-.06-2.19c-.623-.849-1.246-1.723-1.847-2.569l-.43-.6c-.46-.646-.443-.664.009-1.136.953-.994,1.955-1.978,2.924-2.93l.835-.821c.236-.232.454-.307.871,0s.865.623,1.3.932c.635.451,1.291.918,1.92,1.393A1.881,1.881,0,0,0,21,13.055a25.373,25.373,0,0,1,8.32-3.48c1.2-.269,1.485-.579,1.7-1.844q.1-.586.2-1.171c.147-.859.3-1.747.43-2.627.067-.456.234-.607.685-.619.333-.009.657-.041,1-.074v8.305a23.366,23.366,0,0,0-16.921,9.1,22.658,22.658,0,0,0-4.9,14.364,22.879,22.879,0,0,0,6.481,16.179,23.243,23.243,0,0,0,15.363,7.257v8.328l-.112-.005a4.906,4.906,0,0,1-1.188-.15.948.948,0,0,1-.374-.532c-.281-1.33-.489-2.687-.671-3.956A1.8,1.8,0,0,0,29.5,60.467a25.293,25.293,0,0,1-8.569-3.558A1.793,1.793,0,0,0,18.68,57c-.578.432-1.177.859-1.756,1.273-.482.344-.98.7-1.465,1.057-.455.335-.692.247-.971-.034q-.683-.686-1.372-1.365c-.772-.764-1.571-1.555-2.337-2.348-.423-.438-.445-.485-.023-1.079" fill="#73a133"/>
    <path id="Path_68" data-name="Path 68" d="M140.235,41.661a3.85,3.85,0,0,0-4.415,1.911c-.12.225-.189.262-.491.262h0q-9.153-.01-18.306-.008h-7c-.094,0-.193,0-.295-.011V41.286h5.213q6.189,0,12.378,0a3.961,3.961,0,0,0,4.3-4.31l0-.978c0-1.274.009-2.592-.013-3.889-.006-.343.049-.442.325-.592a3.826,3.826,0,0,0,1.827-4.447,3.969,3.969,0,0,0-3.747-2.834H130a3.918,3.918,0,0,0-3.767,2.891,3.822,3.822,0,0,0,1.9,4.421c.249.131.292.212.288.539-.015,1.082-.012,2.182-.01,3.245q0,.776,0,1.552c0,1.043-.157,1.2-1.187,1.2H109.775V35.056l-.013-2.3V30.909h2.119q2,0,3.99,0a3.9,3.9,0,0,0,4.2-4.166c.008-1.974.014-4.08-.007-6.214,0-.291.035-.359.272-.484a3.822,3.822,0,0,0,1.894-4.481,3.883,3.883,0,0,0-3.759-2.835h-.043a3.935,3.935,0,0,0-3.714,2.874,3.866,3.866,0,0,0,1.876,4.424c.252.135.293.2.29.472-.015,1.306-.014,2.633-.012,3.916q0,1.182,0,2.363c0,.737-.2.929-.955.93l-.7,0c-1.869,0-3.8.009-5.7-.016a.813.813,0,0,1-.465-.22,2.563,2.563,0,0,0-2.1-.856l-.47.042a14.979,14.979,0,0,0-2.2.3c-7.622,1.825-12.455,6.423-14.364,13.665a18.56,18.56,0,0,0,.048,10.354,19.634,19.634,0,0,0,5.754,8.662,17.962,17.962,0,0,0,11.014,4.613,2.721,2.721,0,0,0,2.414-.971.621.621,0,0,1,.345-.11c2.179-.021,4.424-.015,6.405-.01.781,0,.973.195.975.981q0,1.31,0,2.62c0,1.219,0,2.438.006,3.657,0,.26-.027.294-.2.386a3.852,3.852,0,0,0-1.965,4.441,3.929,3.929,0,0,0,3.77,2.9h0a3.906,3.906,0,0,0,3.791-2.957,3.866,3.866,0,0,0-1.981-4.378c-.2-.1-.226-.155-.224-.444.013-2.058.014-4.171,0-6.28a3.881,3.881,0,0,0-4.113-4.123q-2.071-.008-4.142,0h-2.046V58.112l.014-2.3V52.787h3.339q7.171,0,14.342,0c.713,0,.931.229.937.979.006.816.005,1.633,0,2.449,0,.878,0,1.786.006,2.679,0,.239-.021.282-.21.382a3.849,3.849,0,0,0-1.982,4.444,3.968,3.968,0,0,0,3.76,2.917H130a3.946,3.946,0,0,0,3.769-2.886,3.859,3.859,0,0,0-1.939-4.456c-.2-.108-.227-.153-.225-.378.014-1.3.011-2.628.009-3.909l0-1.022c0-2.84-1.569-4.4-4.409-4.405H109.788v-2.54h5.965q9.842,0,19.685-.009c.2-.007.246.019.37.248a3.887,3.887,0,0,0,7.312-1.839,3.948,3.948,0,0,0-2.885-3.78m-1.706,3.773a.671.671,0,0,1,.686-.683h.014a.7.7,0,0,1,.5.221.667.667,0,0,1,.186.485.684.684,0,0,1-.224.48.7.7,0,0,1-.507.186.677.677,0,0,1-.654-.689m-9.017-17.759a.677.677,0,0,1,.488-.2h0a.7.7,0,0,1,.5.209.666.666,0,0,1,.2.479.7.7,0,0,1-.674.682.67.67,0,0,1-.493-.181.719.719,0,0,1-.022-.993M118.488,15.943a.662.662,0,0,1,.465.193.7.7,0,0,1,.213.506.689.689,0,0,1-.2.5.708.708,0,0,1-1-.031.665.665,0,0,1-.191-.482.733.733,0,0,1,.691-.683Zm-12.012,13.89V61.012A15.017,15.017,0,0,1,96,55.312c-4.031-5.119-4.714-10.669-2.03-16.5,2.345-5.093,6.552-8.113,12.507-8.983M117.785,74.21a.7.7,0,0,1,.689-.667h.009a.659.659,0,0,1,.683.686.705.705,0,0,1-.212.507.631.631,0,0,1-.479.193.708.708,0,0,1-.492-.228.693.693,0,0,1-.2-.492M130.5,63.185a.7.7,0,0,1-.5.213h0a.668.668,0,0,1-.677-.653.7.7,0,0,1,.179-.51.674.674,0,0,1,.481-.206.7.7,0,0,1,.508.2.667.667,0,0,1,.012.96" transform="translate(-73.12 -10.433)" fill="#73a133"/>
  </g>
</svg>
