<svg id="Group_258" data-name="Group 258" xmlns="http://www.w3.org/2000/svg" xmlns:xlink="http://www.w3.org/1999/xlink" width="49.788" height="50" viewBox="0 0 49.788 50">
  <defs>
    <clipPath id="clip-path">
      <rect id="Rectangle_87" data-name="Rectangle 87" width="49.788" height="50" fill="#73a133"/>
    </clipPath>
  </defs>
  <g id="Group_258-2" data-name="Group 258" clip-path="url(#clip-path)">
    <path id="Path_61" data-name="Path 61" d="M49.779,121.208a2.545,2.545,0,0,0-1.409-2.339.363.363,0,0,1-.24-.405c0-.389.008-.779.014-1.169.017-1.132.034-2.3-.031-3.451a9.257,9.257,0,0,0-5.262-8.138,1,1,0,0,1-.524-.576c-1.183-3.014-2.4-6.075-3.568-9.034l-.39-.986a3.105,3.105,0,0,0-.26-.553,1.2,1.2,0,0,0-1.516-.442,1.215,1.215,0,0,0-.675,1.427,4.531,4.531,0,0,0,.175.5l1.44,3.637q.947,2.391,1.894,4.783c.036.092.069.187.1.286H10.372l.441-1.12c.405-1.03.8-2.036,1.2-3.041q.335-.846.671-1.692c.4-1.018.824-2.071,1.228-3.109a1.361,1.361,0,0,0,.011-1.067,1.192,1.192,0,0,0-.7-.629,1.228,1.228,0,0,0-1.6.8c-.029.069-.056.139-.082.21-.016.043-.032.086-.049.129l-.711,1.8c-1.047,2.651-2.13,5.391-3.206,8.083a.913.913,0,0,1-.355.453,9.441,9.441,0,0,0-5.56,8.957c-.011,1.247-.01,2.538,0,3.946,0,.231-.044.31-.233.405a2.5,2.5,0,0,0-1.4,2.065,4.864,4.864,0,0,0-.014.644,5.068,5.068,0,0,1-.006.537,2.734,2.734,0,0,0,.765,2.165,2.718,2.718,0,0,0,2.182.764c.228-.017.464-.013.713-.008l.185,0v.022c.008.136.014.253.014.371,0,.325,0,.65,0,.975,0,.638-.006,1.3.014,1.949a2.816,2.816,0,0,0,2.778,2.79c2.245.038,4.486.038,6.662,0a2.83,2.83,0,0,0,2.78-2.846c.008-.35.006-.7,0-1.048q0-.221,0-.441v-1.729H33.681q0,.52,0,1.039c0,.711,0,1.447.012,2.171a2.818,2.818,0,0,0,2.772,2.853c1.076.02,2.184.03,3.316.03,1.095,0,2.213-.009,3.346-.028a2.807,2.807,0,0,0,2.787-2.781c.014-.313.012-.629.01-.934,0-.118,0-.236,0-.354,0-.509,0-1.018,0-1.546v-.492l.314,0c.355,0,.69.006,1.026,0a2.573,2.573,0,0,0,2.511-2.479c.02-.463.013-.937,0-1.344m-6.338,7.151c-.006.288-.274.332-.433.332-2.193.008-4.344.008-6.393,0-.458,0-.461-.315-.462-.417-.008-.8-.006-1.587,0-2.419q0-.388,0-.782h7.3q0,.395,0,.785c0,.86.006,1.671-.011,2.5m-29.818.022c-.007.27-.287.311-.453.312-2.04,0-4.114,0-6.342,0-.311,0-.471-.116-.476-.344-.018-.825-.014-1.633-.011-2.489q0-.4,0-.795h7.291q0,.393,0,.783c0,.832.007,1.692-.014,2.532m33.652-5.849a1.632,1.632,0,0,1-.616.048H3.04a1.712,1.712,0,0,1-.529-.039,1.69,1.69,0,0,1-.04-.531c0-.1,0-.184,0-.265a1.78,1.78,0,0,1,.051-.674,1.745,1.745,0,0,1,.667-.051H46.653a1.7,1.7,0,0,1,.62.049,1.723,1.723,0,0,1,.052.628v.152a1.854,1.854,0,0,1-.05.683m-28.952-5.859c0-.659,0-1.057.129-1.187s.522-.13,1.174-.13H30.674c.783,0,.8.015.8.8,0,.589,0,1.178,0,1.783v.608H18.324Zm20.5-9.472a6.892,6.892,0,0,1,6.827,6.569c.058,1.124.043,2.278.028,3.394-.006.448-.012.909-.014,1.368H33.93v-.659c0-.628,0-1.247,0-1.866a2.859,2.859,0,0,0-3.094-3.107c-4-.01-8-.009-11.88,0a2.858,2.858,0,0,0-3.089,3.11c0,.62,0,1.241,0,1.87v.653H4.142c.011-.623-.009-1.253-.028-1.864a14.973,14.973,0,0,1,.3-4.465,6.887,6.887,0,0,1,6.5-5c10.172-.027,19.3-.027,27.9,0" transform="translate(0 -81.17)" fill="#73a133"/>
    <path id="Path_62" data-name="Path 62" d="M108.3,12.86c.41.126.588.3.658.641a1.347,1.347,0,0,0,.117.31,1.027,1.027,0,0,1,.085.213c.054.257.036.338.021.364a2.139,2.139,0,0,0,.527,3.069c.1.094.2.2.307.3s.226.234.351.343a1.67,1.67,0,0,0,1.891.348,1.376,1.376,0,0,1,1.532.1.955.955,0,0,0,.3.124.817.817,0,0,1,.653.656,1.724,1.724,0,0,0,1.551,1.283c.285.024.582.035.9.035s.661-.012,1.023-.037a1.5,1.5,0,0,0,1.378-.98,1.363,1.363,0,0,1,1.15-.959.821.821,0,0,0,.252-.1.746.746,0,0,1,.835,0,1.773,1.773,0,0,0,2.039-.259,12.707,12.707,0,0,0,1.167-1.111,1.782,1.782,0,0,0,.352-2.025.6.6,0,0,1,.031-.69,2.365,2.365,0,0,0,.314-.654,1.5,1.5,0,0,1,.972-1.178c.746-.248,1-1.412,1-2.333-.006-.9-.277-2.035-1.021-2.272-.563-.179-.732-.572-.909-1.106a2.17,2.17,0,0,0-.135-.3,1.5,1.5,0,0,1-.124-.29,1.544,1.544,0,0,1,0-.489,3.9,3.9,0,0,1,.074-.431,1.8,1.8,0,0,0,.028-.982,4.083,4.083,0,0,0-2.136-2.226,1.388,1.388,0,0,0-1.123-.02,1.452,1.452,0,0,1-1.512-.147,1.831,1.831,0,0,0-.539-.2.668.668,0,0,1-.567-.532A1.8,1.8,0,0,0,117.948.034c-.164,0-.337-.009-.5-.017-.9-.043-1.925-.092-2.566,1a2.207,2.207,0,0,0-.143.306,1.473,1.473,0,0,1-.825.792,1.531,1.531,0,0,1-1.189.013,3.714,3.714,0,0,0-.574-.181c-.105-.027-.22-.057-.346-.094l-.077-.022-.072.036c-.095.047-.2.094-.3.141a5,5,0,0,0-.815.435,5.329,5.329,0,0,0-.748.681c-.07.072-.14.144-.21.215a1.851,1.851,0,0,0-.4,2.334.859.859,0,0,1,0,.974,1.407,1.407,0,0,0-.21.5c-.064.346-.254.524-.7.658a1.869,1.869,0,0,0-1.43,1.887c-.016.352-.018.73-.006,1.192A1.919,1.919,0,0,0,108.3,12.86m3.474-5.843.134-.229a.869.869,0,0,0,.038-1.005,2.162,2.162,0,0,1-.155-.305c-.034-.076-.068-.153-.107-.227l-.026-.05c-.132-.248-.171-.323.023-.5.255-.23.379-.2.576-.053a1.547,1.547,0,0,0,2.02,0,5.066,5.066,0,0,1,1.46-.585l.183-.053a.907.907,0,0,0,.753-.732,1.485,1.485,0,0,1,.077-.241,1.944,1.944,0,0,0,.092-.289c.045-.216.11-.288.4-.289s.362.083.394.285a1.453,1.453,0,0,0,1.4,1.322,4.245,4.245,0,0,1,1.656.666,1.427,1.427,0,0,0,1.8.044c.172-.123.26-.127.473.086s.192.294.059.468a1.31,1.31,0,0,0,.01,1.688,6.3,6.3,0,0,1,.761,1.862,1.245,1.245,0,0,0,1.059,1.075c.3.051.375.133.358.384-.023.326-.085.364-.244.381-.839.092-1.063.692-1.207,1.247a6.75,6.75,0,0,1-.868,1.929,1.245,1.245,0,0,0-.061,1.594c.145.191.164.309-.092.544-.187.172-.279.157-.444.031a1.46,1.46,0,0,0-1.746-.036,8.74,8.74,0,0,1-1.783.643l-.235.066c-.326.093-.65.223-.729.688a1.261,1.261,0,0,1-.069.22,1.764,1.764,0,0,0-.082.258c-.049.23-.117.311-.393.306-.34-.006-.388-.089-.409-.264a1.632,1.632,0,0,0-1.427-1.436,7.064,7.064,0,0,1-1.694-.8l-.088-.051a1.174,1.174,0,0,0-.583-.2.807.807,0,0,0-.461.154,1.156,1.156,0,0,1-.185.092c-.037.016-.074.032-.11.049-.3.143-.479.229-.57.2s-.213-.168-.394-.389c.936-.978.474-2.028-.046-2.844a1.986,1.986,0,0,1-.266-.829,1.075,1.075,0,0,0-.99-1.042.99.99,0,0,1-.2-.069,1.365,1.365,0,0,0-.279-.092c-.211-.039-.277-.092-.281-.35,0-.3.078-.365.277-.392a1.764,1.764,0,0,0,1.626-1.623,4.262,4.262,0,0,1,.595-1.314" transform="translate(-92.241 0)" fill="#73a133"/>
    <path id="Path_63" data-name="Path 63" d="M49.38,212.747h.044a3.727,3.727,0,0,0-.007-7.453h-.028a3.727,3.727,0,0,0-.009,7.453m.956-2.858a1.291,1.291,0,0,1-.923.4H49.4a1.239,1.239,0,0,1-1.248-1.236,1.279,1.279,0,0,1,.362-.925,1.246,1.246,0,0,1,.895-.37h0A1.269,1.269,0,0,1,50.687,209a1.231,1.231,0,0,1-.351.892" transform="translate(-39.454 -177.27)" fill="#73a133"/>
    <path id="Path_64" data-name="Path 64" d="M269.062,212.722h.018a3.666,3.666,0,0,0,2.618-1.1,3.741,3.741,0,0,0-2.651-6.358h-.013a3.729,3.729,0,1,0,.029,7.459m-1.287-3.729a1.257,1.257,0,0,1,.384-.9,1.289,1.289,0,0,1,.929-.362,1.265,1.265,0,1,1-1.314,1.262" transform="translate(-229.097 -177.243)" fill="#73a133"/>
    <path id="Path_65" data-name="Path 65" d="M150.609,49.468h.043a5.038,5.038,0,0,0,5.082-4.961,4.818,4.818,0,0,0-1.453-3.424,5.18,5.18,0,0,0-3.729-1.488,5,5,0,0,0-5.108,4.932,4.809,4.809,0,0,0,1.438,3.436,5.238,5.238,0,0,0,3.726,1.506m-.026-7.416a2.566,2.566,0,0,1,2.693,2.46,2.38,2.38,0,0,1-.7,1.7,2.753,2.753,0,0,1-1.967.8H150.6a2.566,2.566,0,0,1-2.695-2.46,2.384,2.384,0,0,1,.7-1.7,2.756,2.756,0,0,1,1.968-.8Z" transform="translate(-125.591 -34.189)" fill="#73a133"/>
  </g>
</svg>
