<svg id="Group_265" data-name="Group 265" xmlns="http://www.w3.org/2000/svg" xmlns:xlink="http://www.w3.org/1999/xlink" width="70" height="69.998" viewBox="0 0 70 69.998">
  <defs>
    <clipPath id="clip-path">
      <rect id="Rectangle_91" data-name="Rectangle 91" width="70" height="69.998" fill="#73a133"/>
    </clipPath>
  </defs>
  <g id="Group_264" data-name="Group 264" clip-path="url(#clip-path)">
    <path id="Path_91" data-name="Path 91" d="M67.879,39.924A1.857,1.857,0,0,0,70,37.834Q70,34.7,70,31.567a1.866,1.866,0,0,0-1.48-2.12q-10.31-3.87-20.622-7.734l-9.44-3.54c-.343-.128-.684-.26-1.025-.392l-.622-.239V11.849H40.44q3.136,0,6.272,0a1.831,1.831,0,0,0,2.106-2.084c0-.827,0-1.654-.005-2.481-.008-1.6-.015-3.262.025-4.894A2.185,2.185,0,0,0,47.483,0H34.51a2.371,2.371,0,0,0-1.321,2.494c.03,2.791.028,5.628.026,8.372,0,1.881,0,3.827.006,5.74a1.173,1.173,0,0,1-.876,1.294C27,19.891,21.563,21.923,16.307,23.889q-7.3,2.73-14.6,5.452A2.664,2.664,0,0,0,0,30.783v7.748a2.077,2.077,0,0,0,2.345,1.4c.193-.013.387-.017.583-.017.157,0,.316,0,.48.005s.349.006.535.006h.276V47.08q0,10.366,0,20.732c0,1.226.4,1.857,1.334,2.109A2.92,2.92,0,0,0,6.3,70Q34.984,70,63.672,70c1.457,0,2.107-.665,2.107-2.156q0-9.9,0-19.8V39.925h.893c.414,0,.81,0,1.206,0M36.82,3.619h8.369V8.23H36.82ZM20.7,51.543c0,.135,0,.271,0,.406q0,5.168,0,10.336v4.1H16.057l-.02-.255c0-.059-.01-.114-.015-.167-.011-.118-.022-.229-.022-.345v-.281c0-4.783,0-9.728,0-14.592a3.2,3.2,0,0,1,.143-.962,2.332,2.332,0,0,1,4.535.567c.026.4.022.8.019,1.195M37.269,65.882c0,.077-.009.156-.012.238l-.012.264h-4.6l-.02-.254c0-.06-.011-.121-.017-.182a4.231,4.231,0,0,1-.029-.429v-2.3c0-4.98,0-10.129,0-15.194a2.72,2.72,0,0,1,.941-2.169,2.358,2.358,0,0,1,3.707,1.455,4.512,4.512,0,0,1,.063.875q0,8.61,0,17.22c0,.159-.009.314-.018.479m16.73.5H49.346l-.015-.26c0-.069-.008-.134-.013-.2-.009-.134-.018-.261-.018-.39V63.025q0-6.149,0-12.3A2.308,2.308,0,0,1,51.639,48.2h0A2.354,2.354,0,0,1,54,50.8q.006,4.773,0,9.546Zm12.433-33c-.042.59-.015,2.96-.015,2.96H62.062q-7.753,0-15.508,0h-.122a4.51,4.51,0,0,0-.916.06,1.752,1.752,0,0,0-1.331,1.628A1.729,1.729,0,0,0,45.4,39.808a3.747,3.747,0,0,0,1.011.111q5.842.009,11.684.005h4.058v26.45H57.581V65.319q0-2.158,0-4.317c0-3.372,0-6.858-.006-10.287A5.956,5.956,0,0,0,47.916,45.9a5.621,5.621,0,0,0-2.166,4.308c-.057,3.5-.048,7.057-.039,10.5q.006,2.258.006,4.515v1.141H40.87V60.283q0-6.079,0-12.157A5.992,5.992,0,0,0,36.755,42.1a5.916,5.916,0,0,0-7.712,5.058c-.034.368-.05.765-.05,1.213q0,6.751,0,13.5v4.5H24.282V65.255q0-2.159,0-4.318c0-3.349,0-6.812-.006-10.218a5.926,5.926,0,0,0-9.554-4.874,6.046,6.046,0,0,0-2.3,4.772c-.023,3.389-.018,6.835-.013,10.168q0,2.218,0,4.436v1.147H7.84V39.925H11.8q5.812,0,11.625,0a3.957,3.957,0,0,0,.954-.091,1.77,1.77,0,0,0-.308-3.468c-.231-.02-.464-.019-.71-.018H3.617v-3.87l2.564-.965q2.591-.976,5.193-1.951l5.744-2.15c5.569-2.084,11.328-4.238,16.986-6.372a2.406,2.406,0,0,1,1.833.01c9.57,3.6,19.537,7.332,29.623,11.092a1.1,1.1,0,0,1,.872,1.246" fill="#73a133"/>
  </g>
</svg>
