<svg id="Group_198" data-name="Group 198" xmlns="http://www.w3.org/2000/svg" xmlns:xlink="http://www.w3.org/1999/xlink" width="50" height="49.452" viewBox="0 0 50 49.452">
  <defs>
    <clipPath id="clip-path">
      <rect id="Rectangle_42" data-name="Rectangle 42" width="50" height="49.452" fill="#73a133"/>
    </clipPath>
  </defs>
  <g id="Group_198-2" data-name="Group 198" clip-path="url(#clip-path)">
    <path id="Path_45" data-name="Path 45" d="M49.8,30.282c-1.037-6.7-4.914-11.259-11.522-13.556a1.092,1.092,0,0,1-.2-.09c.589,0,1.146.005,1.715-.006a4.705,4.705,0,0,0,3-1.134,4.856,4.856,0,0,0-3.065-8.577c-1.668-.013-3.363-.01-5-.008l-1.962,0a4.855,4.855,0,0,0-.255-4.581A4.729,4.729,0,0,0,28.463.02C20.646-.014,12.7,0,5.011.014H4.77A4.792,4.792,0,0,0,.254,3.33c-.066.2-.119.4-.169.589C.062,4,.04,4.088.016,4.172L0,4.231V5.524L.028,5.6c.01.027.021.055.032.082a.829.829,0,0,1,.032.087A4.859,4.859,0,0,0,5.108,9.729h6.673a4.852,4.852,0,0,0,0,4.091h-.116c-.6,0-1.165-.006-1.736.006a4.815,4.815,0,0,0-4.406,3.1,4.707,4.707,0,0,0,1.1,5.193l.022.023a4.833,4.833,0,0,0-.009,6.907,4.842,4.842,0,0,0,0,6.906,4.76,4.76,0,0,0-1.44,3.157,4.844,4.844,0,0,0,4.84,5.15c3.7.021,7.469.009,10.794,0h0a.693.693,0,0,1,.559.23,16.346,16.346,0,0,0,11.641,4.964,18.491,18.491,0,0,0,3.527-.351A16.592,16.592,0,0,0,49.8,30.282M33.236,18.748h.024a13.941,13.941,0,0,1,0,27.882h0a13.941,13.941,0,0,1-.019-27.882M21.7,20.558a.6.6,0,0,1-.3.157c-3.87.017-7.692.019-11.363.007a2.041,2.041,0,0,1-.337-4.053,3.009,3.009,0,0,1,.537-.032H28.451A16.955,16.955,0,0,0,21.7,20.558m-4.538,7.075-1.71,0c-1.783,0-3.627.005-5.44-.006a2.036,2.036,0,0,1-.84-3.88,1.921,1.921,0,0,1,.738-.192c1.929-.009,3.871-.011,5.784-.011H19.17Zm-7.1,2.821c.954,0,1.914-.007,2.867-.007l2.074,0,1.6,0v4.091H14.6l-1.391,0c-1.035,0-2.106,0-3.157-.006a2.042,2.042,0,1,1,0-4.084M9.922,37.37c1.034-.013,2.073-.017,3.1-.017.737,0,1.47,0,2.192,0l1.837,0,1.874,4.084-2.054,0c-2.278,0-4.634.009-6.961-.013a2.036,2.036,0,0,1,.011-4.065M29.871,6.249a2.153,2.153,0,0,1-1.591.663q-4.168.007-8.336,0H13.256c-2.73,0-5.552,0-8.328,0a2.12,2.12,0,0,1-1.716-.832A2.044,2.044,0,0,1,4.875,2.825c.88,0,1.768-.005,2.651-.005h8.182q6.26,0,12.519,0a2.071,2.071,0,0,1,2.18,1.9,2.016,2.016,0,0,1-.535,1.524m-1.927,7.572q-1.718,0-3.434,0c-2.709,0-5.511,0-8.265,0a2.115,2.115,0,0,1-1.7-.816,2.021,2.021,0,0,1-.331-1.772,2.059,2.059,0,0,1,1.862-1.5c.056,0,.111,0,.167,0h5.595q8.856,0,17.713,0a2.058,2.058,0,0,1,2.177,1.944,2.021,2.021,0,0,1-.552,1.5,2.16,2.16,0,0,1-1.579.646q-4.162.007-8.323,0Z" transform="translate(0 0.001)" fill="#73a133"/>
    <path id="Path_46" data-name="Path 46" d="M227.972,199.178a6.669,6.669,0,0,0,.832.111c.228.021.443.04.649.079a1.533,1.533,0,0,1,1.069.738,1.165,1.165,0,0,1,.08,1,1.72,1.72,0,0,1-1.9.93,1.472,1.472,0,0,1-1.347-1.355,1.408,1.408,0,1,0-2.808.155,3.95,3.95,0,0,0,1.038,2.538,4.527,4.527,0,0,0,2.029,1.3c.1.592.372,1.473,1.392,1.473h.037c1.032-.021,1.294-.911,1.381-1.481l.029-.01a4.185,4.185,0,0,0,3.036-4.183,4.291,4.291,0,0,0-3.456-3.858,6.341,6.341,0,0,0-.9-.11c-.13-.01-.26-.019-.389-.033a1.526,1.526,0,0,1-1.345-1.049,1.135,1.135,0,0,1,.454-1.276,1.773,1.773,0,0,1,1.9-.253,1.384,1.384,0,0,1,.937,1.3,1.375,1.375,0,0,0,1.645,1.3,1.438,1.438,0,0,0,1.154-1.611,4.2,4.2,0,0,0-2.875-3.667.887.887,0,0,1-.2-.084.429.429,0,0,1-.007-.117,1.369,1.369,0,0,0-.392-1.025,1.4,1.4,0,0,0-2.4,1.049.69.69,0,0,1,0,.1.6.6,0,0,1-.089.036,4.143,4.143,0,0,0-2.978,4.219,4.242,4.242,0,0,0,3.419,3.781" transform="translate(-195.768 -165.276)" fill="#73a133"/>
  </g>
</svg>
