<svg id="Group_208" data-name="Group 208" xmlns="http://www.w3.org/2000/svg" xmlns:xlink="http://www.w3.org/1999/xlink" width="50" height="44.726" viewBox="0 0 50 44.726">
  <defs>
    <clipPath id="clip-path">
      <rect id="Rectangle_46" data-name="Rectangle 46" width="50" height="44.726" fill="#73a133"/>
    </clipPath>
  </defs>
  <g id="Group_207" data-name="Group 207" clip-path="url(#clip-path)">
    <path id="Path_54" data-name="Path 54" d="M0,37.885A1.441,1.441,0,0,1,1.666,37c1.141.2,1.734-.294,2.3-1.282C6.043,32.1,8.24,28.543,10.375,24.952a2.582,2.582,0,0,0,.206-.862c.022-.125-.046-.268-.014-.387A2.835,2.835,0,0,0,10,21.518q-3.243-5.839-6.453-11.7A6.461,6.461,0,0,1,4.838,1.647,6.3,6.3,0,0,1,9.164.008q9.175-.02,18.35,0a1.248,1.248,0,0,1,1.339,1.3c.018.421,0,.844,0,1.338h.6q5.564,0,11.127,0a3.86,3.86,0,0,1,3.654,2.074,3.8,3.8,0,0,1-1.729,5.248.652.652,0,0,0-.447.729c.027.811.008,1.623.008,2.511h.541c1.09,0,2.18-.007,3.27,0,1.231.01,1.779.877,1.239,1.966q-1.222,2.467-2.466,4.924a1.232,1.232,0,1,1-2.171-1.109c.468-.947.946-1.889,1.417-2.834.07-.141.127-.289.209-.475H37.571c.078.175.14.331.214.481.5,1,1.011,2,1.494,3.013a1.233,1.233,0,0,1-.37,1.528,1.212,1.212,0,0,1-1.526-.093,1.76,1.76,0,0,1-.338-.472c-.841-1.669-1.682-3.337-2.5-5.014a1.231,1.231,0,0,1,1.169-1.913c1.106-.02,2.212,0,3.319,0h.563v-2.8H28.859c0,.372,0,.754,0,1.135A1.284,1.284,0,0,1,27.4,13c-2.375,0-4.749,0-7.2,0,.075.167.122.294.186.412.57,1.041,1.131,2.086,1.722,3.115a1.961,1.961,0,0,0,.581.626,7.749,7.749,0,0,1,1.548,11.665,2.539,2.539,0,0,0-.682,1.9c.042,1.887.014,3.775.014,5.662v.609h.7c8.036,0,16.073.014,24.109-.016A1.439,1.439,0,0,1,50,38.6c-.056,1.544-.014,3.091-.015,4.637a1.292,1.292,0,0,1-1.449,1.48q-23.548,0-47.1.009A1.563,1.563,0,0,1,0,43.841Zm2.462,4.354H47.517V39.466H2.462ZM18.9,15.833c-.1-.192-.17-.335-.247-.474q-2.185-3.968-4.373-7.935C13.7,6.358,13.138,5.272,12.49,4.243A3.976,3.976,0,0,0,8.05,2.607,4.072,4.072,0,0,0,5.69,8.649c1.93,3.534,3.884,7.055,5.83,10.581a3.6,3.6,0,0,0,.214.307,8.09,8.09,0,0,1,7.172-3.7M11.612,27.667l-5.577,9.3H21.081V31.071a8.005,8.005,0,0,1-9.469-3.4m2.672-25.2c.277.466.529.863.756,1.274C16.22,5.868,17.4,8,18.562,10.138a.693.693,0,0,0,.708.434c2.21-.02,4.42-.009,6.63-.011.157,0,.314-.015.485-.023V2.464Zm9.481,21.205a5.382,5.382,0,1,0-5.353,5.4,5.394,5.394,0,0,0,5.353-5.4M28.887,7.894h8.2V5.12h-8.2Zm11.934.022a1.418,1.418,0,0,0,1.439-1.4,1.448,1.448,0,0,0-1.426-1.427,1.421,1.421,0,0,0-1.4,1.39,1.4,1.4,0,0,0,1.39,1.44" transform="translate(0 0)" fill="#73a133"/>
    <path id="Path_55" data-name="Path 55" d="M136.218,189.593a3.856,3.856,0,1,1,3.849,3.845,3.872,3.872,0,0,1-3.849-3.845m5.27-.031a1.43,1.43,0,0,0-1.452-1.4,1.415,1.415,0,1,0,1.452,1.4" transform="translate(-121.679 -165.902)" fill="#73a133"/>
  </g>
</svg>
