<svg id="Group_206" data-name="Group 206" xmlns="http://www.w3.org/2000/svg" xmlns:xlink="http://www.w3.org/1999/xlink" width="44.131" height="50" viewBox="0 0 44.131 50">
  <defs>
    <clipPath id="clip-path">
      <rect id="Rectangle_45" data-name="Rectangle 45" width="44.131" height="50" fill="#73a133"/>
    </clipPath>
  </defs>
  <g id="Group_205" data-name="Group 205" clip-path="url(#clip-path)">
    <path id="Path_52" data-name="Path 52" d="M44.127,21.625a3.756,3.756,0,0,0-.054-.654,1.351,1.351,0,0,0-1.267-1.161,5.114,5.114,0,0,0-.564-.019H13.312l7.543-2.182,7.4-2.142q6.479-1.875,12.958-3.753a1.513,1.513,0,0,0,1.205-2.156q-.187-.649-.372-1.3c-.374-1.309-.761-2.663-1.165-3.99A5.733,5.733,0,0,0,33.823.189c-1.528.374-3.057.831-4.536,1.272-.61.182-1.22.364-1.831.541L22.93,3.313C16.838,5.077,10.539,6.9,4.346,8.7A5.8,5.8,0,0,0,.257,16.094c.161.567.327,1.133.492,1.7.277.947.563,1.926.823,2.892a5.723,5.723,0,0,1,.213,1.471c.01,4.639.01,9.356.01,13.917q0,3.99,0,7.979A5.824,5.824,0,0,0,5.872,49.73c.2.064.407.121.6.176l.268.075L6.809,50H19.445l.1-.047a1.474,1.474,0,0,0,.993-1.539,1.457,1.457,0,0,0-1.609-1.284q-2.069,0-4.137,0H11.553q-1.848,0-3.7,0a2.959,2.959,0,0,1-3.187-3.179q0-4.332,0-8.665V31.65H41.255q0,.02,0,.039v1.173q0,5.474,0,10.949a3.006,3.006,0,0,1-3.344,3.317H27.156a3.131,3.131,0,0,0-.648.048,1.415,1.415,0,0,0-.53,2.546c.064.046.128.09.193.135l.205.142H39.059l.069-.021c.144-.044.291-.084.446-.125a6.255,6.255,0,0,0,1.064-.356,5.741,5.741,0,0,0,3.49-5.591c0-7.51,0-15.125,0-22.281M15.272,22.657c1.164.011,2.306.01,3.515.008H19.3l-.146.254c-1.081,1.878-2.2,3.82-3.311,5.721a.363.363,0,0,1-.09.089c-1.265.018-2.519.016-3.844.015h-.312l.792-1.368c.866-1.5,1.763-3.043,2.632-4.572.077-.136.1-.148.256-.145m-3.5.03-.9,1.559c-.83,1.438-1.689,2.924-2.527,4.391-.066.115-.068.114-.174.113-.611-.008-1.231-.01-1.845-.01H4.7V22.687Zm7.333,6.055.119-.207c1.091-1.893,2.219-3.851,3.341-5.768a.358.358,0,0,1,.09-.088c1.264-.018,2.517-.016,3.843-.015h.311l-.834,1.442c-.845,1.46-1.719,2.97-2.565,4.464-.093.165-.126.184-.329.181-.73-.009-1.452-.012-2.186-.012l-1.269,0h-.521m7.512,0,.869-1.5c.839-1.451,1.706-2.951,2.551-4.432.078-.136.1-.148.254-.147,1.164.013,2.308.011,3.519.009h.508l-.325.565c-1.017,1.768-2.069,3.6-3.117,5.385a.414.414,0,0,1-.117.113c-1.277.019-2.576.016-3.834.012Zm7.528-.029.779-1.346c.863-1.492,1.756-3.034,2.623-4.559.083-.146.105-.151.252-.149.943.013,1.905.011,2.836.009h.593V28.71ZM11.415,17.352l-7.2,2.085h0c-.093-.315-.184-.621-.27-.928-.106-.378-.216-.754-.326-1.131C3.361,16.506,3.1,15.6,2.9,14.712A2.692,2.692,0,0,1,3.429,12.6a2.806,2.806,0,0,1,1.8-1.186c2.077,1.989,4.114,3.948,6.183,5.94M13.43,15.3l-2.1-2.016Q9.88,11.891,8.43,10.5l.556-.162c1.117-.325,2.272-.662,3.409-.976a.263.263,0,0,1,.078,0c1.976,1.878,3.975,3.8,5.907,5.655l.251.241-.208.061c-.741.218-1.508.444-2.26.659-.191.054-.381.125-.564.192a2.173,2.173,0,0,1-1.019.225c-.218-.053-.477-.35-.727-.639-.135-.155-.273-.315-.423-.459m2.226-6.884.469-.132c.956-.268,1.945-.545,2.9-.873a.922.922,0,0,1,1.158.291c1.433,1.428,2.92,2.845,4.358,4.216q.655.624,1.31,1.25l-.926.268-.779.228c-.735.216-1.5.439-2.242.639a.3.3,0,0,1-.112-.01C19.869,12.468,17.93,10.6,16.054,8.8Zm7.206-2.088.237-.069L23.986,6c.925-.271,1.882-.551,2.821-.809a.286.286,0,0,1,.109.011c1.909,1.811,3.838,3.664,5.7,5.457l.44.423-.247.072c-.8.235-1.584.465-2.368.69-.178.051-.355.118-.526.183a1.937,1.937,0,0,1-.873.205c-.2-.049-.456-.335-.681-.588-.119-.134-.243-.273-.375-.4Q26.8,10.106,25.614,8.965q-1.375-1.32-2.752-2.639m7.206-2.1.972-.282c1.332-.388,2.59-.754,3.881-1.055A2.746,2.746,0,0,1,37.98,4.692c.387,1.128.711,2.254,1.055,3.446q.161.557.324,1.117l-.523.154c-.822.243-1.672.494-2.507.719a.286.286,0,0,1-.106-.009c-1.865-1.772-3.75-3.585-5.573-5.338Z" transform="translate(0.001 0)" fill="#73a133"/>
    <path id="Path_53" data-name="Path 53" d="M157.215,287.336a1.626,1.626,0,0,0,.714,1.494,1.285,1.285,0,0,0,.651.169,2.043,2.043,0,0,0,1.006-.3c2.759-1.586,5.451-3.14,8-4.618a1.616,1.616,0,0,0,.926-1.366,1.588,1.588,0,0,0-.907-1.346c-2.579-1.494-5.211-3.012-8.046-4.64a1.461,1.461,0,0,0-2.347,1.359q0,1.617,0,3.233v2.765q0,1.626,0,3.252m2.89-2.255v-4.724l4.1,2.363Z" transform="translate(-138.447 -243.441)" fill="#73a133"/>
  </g>
</svg>
