<svg id="Group_263" data-name="Group 263" xmlns="http://www.w3.org/2000/svg" xmlns:xlink="http://www.w3.org/1999/xlink" width="51.82" height="50" viewBox="0 0 51.82 50">
  <defs>
    <clipPath id="clip-path">
      <rect id="Rectangle_90" data-name="Rectangle 90" width="51.82" height="50" fill="#73a133"/>
    </clipPath>
  </defs>
  <g id="Group_262" data-name="Group 262" clip-path="url(#clip-path)">
    <path id="Path_69" data-name="Path 69" d="M1.339,204.02a1.106,1.106,0,0,0,1.01-1.239c-.029-.636-.067-1.32-.153-2.006a1.2,1.2,0,0,0-.625-.956,1.027,1.027,0,0,0-.982.04,1.664,1.664,0,0,0-.372.315c-.038.04-.077.08-.117.117l-.1.094v1.538l.058.368c.04.235.08.47.123.705a1.139,1.139,0,0,0,1.092,1.025l.065,0" transform="translate(0 -174.317)" fill="#73a133"/>
    <path id="Path_70" data-name="Path 70" d="M89.354,12.214c-.168-.183-.342-.362-.511-.536-.207-.213-.422-.433-.62-.656a1.283,1.283,0,0,0-1.462-.37c-.259.084-.527.162-.786.238-.371.109-.754.221-1.128.353-.141.049-.18.047-.3-.091-.344-.382-.7-.758-1.049-1.123q-.214-.224-.426-.449l-.9-.952.014-.008L84.191,7.5Q86.2,6.389,88.2,5.269a1.3,1.3,0,0,0,.763-.911,1.319,1.319,0,0,0-.488-1.1c-.157-.159-.317-.315-.478-.472-.3-.29-.606-.59-.882-.9a1.481,1.481,0,0,0-1.71-.45c-1.2.375-2.416.745-3.6,1.1-1.245.377-2.533.767-3.8,1.165a.531.531,0,0,1-.691-.2c-.771-.867-1.6-1.729-2.33-2.49A3.089,3.089,0,0,0,72.63,0a3.055,3.055,0,0,0-2.245,1.2,5.169,5.169,0,0,0-.563.954c-.038.077-.077.156-.117.233-.066-.01-.135-.02-.208-.026a1.028,1.028,0,0,0-1.129.761A1.012,1.012,0,0,0,68.9,4.393a5.584,5.584,0,0,0,.6.244c.121.044.236.085.348.132l.1.039a.973.973,0,0,1,.282.143c.944.91,1.934,1.88,3.027,2.968a.666.666,0,0,1,.108.142c-.178.642-.379,1.292-.574,1.92l-.076.244-.171-.108-.382-.241A18.219,18.219,0,0,0,59.218,7.248a17.874,17.874,0,0,0-11.689,6.924,19.155,19.155,0,0,0-3.871,8.673,18.438,18.438,0,0,0,1.083,9.394c2.4,6.422,7.136,10.4,14.067,11.825a17.331,17.331,0,0,0,3.5.358A18.853,18.853,0,0,0,78.889,34.146,18.692,18.692,0,0,0,77.295,14.63a.613.613,0,0,1-.1-.218c.27-.534.564-1.057.875-1.61l.127-.226.39.366c.76.714,1.479,1.388,2.189,2.082a.394.394,0,0,1,.022.215c-.166.635-.365,1.3-.594,1.986a1.2,1.2,0,0,0,.325,1.324c.254.248.5.5.753.751l.375.377a1.4,1.4,0,0,0,1.11.523,1.377,1.377,0,0,0,.911-.8q.3-.542.592-1.087c.368-.678.748-1.379,1.134-2.061a1.091,1.091,0,0,1,.388-.39c.571-.323,1.158-.643,1.726-.951.51-.277,1.037-.564,1.552-.853a1.179,1.179,0,0,0,.665-.829,1.2,1.2,0,0,0-.385-1.014m-6.507,3.868c.076-.262.155-.533.239-.8a1.289,1.289,0,0,0-.37-1.455c-.746-.691-1.5-1.4-2.226-2.086q-.817-.771-1.637-1.539a1.384,1.384,0,0,0-.918-.451.875.875,0,0,0-.134.01,1.282,1.282,0,0,0-.873.746Q76,12.178,75.066,13.844l-1.4,2.509c-.038.069-.078.137-.123.215a2.234,2.234,0,0,1-.3-.369.578.578,0,0,1,.025-.291c.724-2.417,1.5-4.994,2.305-7.587A1.419,1.419,0,0,0,75.146,6.7c-.835-.758-1.668-1.549-2.474-2.315l-.583-.553a.733.733,0,0,1-.256-.908c.2-.477.486-.712.844-.7a1.322,1.322,0,0,1,.786.335c1.037,1.021,2.022,2.085,2.849,2.991a1.423,1.423,0,0,0,1.614.438c1.752-.544,3.539-1.081,5.267-1.6l1.99-.6a1.713,1.713,0,0,1,.676-.141,1.067,1.067,0,0,1,.309.324l-.308.171q-.69.382-1.377.761l-1.759.966q-1.265.694-2.529,1.39a1.443,1.443,0,0,0-.827.917,1.464,1.464,0,0,0,.508,1.139q.549.588,1.1,1.173c.783.833,1.592,1.694,2.373,2.553a1.377,1.377,0,0,0,1.629.418c.293-.1.6-.193.9-.279s.593-.17.888-.273l-.248.137c-.594.329-1.209.669-1.823.979a2.278,2.278,0,0,0-1.067,1.063c-.306.614-.633,1.2-.98,1.83l-.14.253c.125-.361.232-.731.336-1.088M65.65,41.359c0,.132.007.264.009.4A16.4,16.4,0,0,1,45.886,26.673a1,1,0,0,1,.29.14c1.445,1.146,2.61,2.1,3.666,2.99a15.081,15.081,0,0,0,5.422,3.163A10.142,10.142,0,0,0,61.7,32.9a1.946,1.946,0,0,0,1.355-1.4,1.822,1.822,0,0,0-.675-1.7,13.446,13.446,0,0,0-2.135-1.454l-.137-.081c-.391-.232-.8-.432-1.2-.625-.311-.151-.632-.308-.935-.476a3.246,3.246,0,0,1-.743-.59.977.977,0,0,1-.205-1.373,11.412,11.412,0,0,1,1.625-1.979c.928-.88,1.891-1.756,2.822-2.6,1.019-.927,2.073-1.886,3.087-2.855a8.953,8.953,0,0,0,2.329-3.625,5.224,5.224,0,0,0-.514-4.482l.1.03c.539.163,1.1.331,1.63.521a15.777,15.777,0,0,1,3.87,2.074c.117.084.117.084.075.218-.174.548-.342,1.108-.5,1.649-.171.571-.349,1.161-.533,1.737a1.327,1.327,0,0,0,.378,1.5c.346.32.688.661,1.019.99.182.181.364.362.548.542a1.229,1.229,0,0,0,1.023.432,1.253,1.253,0,0,0,.874-.714c.327-.577.642-1.148.976-1.752l.2-.359a16.786,16.786,0,0,1,2.247,5.066c.063.247.057.287-.183.441a17.3,17.3,0,0,0-2.241,1.646,3.974,3.974,0,0,0-1.084,2.815,7.281,7.281,0,0,1-2.315,4.561c-.643.647-1.334,1.274-2,1.88-.69.627-1.4,1.275-2.073,1.951a8.14,8.14,0,0,0-2.7,5.02,11.873,11.873,0,0,0-.023,1.468M63.191,9.243a4.888,4.888,0,0,1,1.648,2.672,4.284,4.284,0,0,1-1.121,3.532,24.667,24.667,0,0,1-3.451,3.425c-.325.282-.661.574-.988.867-1.163,1.04-2.285,2.144-3.37,3.211a4.359,4.359,0,0,0-.713,1.008,3.222,3.222,0,0,0,1.132,4.7A19.827,19.827,0,0,0,58.218,29.7c.256.129.512.258.764.391l.272.142a7.328,7.328,0,0,1,1.259.76,7.484,7.484,0,0,1-2.671.239,10.657,10.657,0,0,1-6.34-2.867c-.583-.483-1.169-.985-1.736-1.47-.49-.419-1-.853-1.5-1.275a5.005,5.005,0,0,0-2.428-1.2c.036-.233.07-.465.1-.691a19.111,19.111,0,0,1,.378-2.071A16.413,16.413,0,0,1,63.031,9.216a.567.567,0,0,1,.159.027m5.354,28.846a12.747,12.747,0,0,1,2.574-2.9c1-.86,1.881-1.673,2.7-2.484a9.429,9.429,0,0,0,3.1-6.119,2.98,2.98,0,0,1,1.749-2.465A16.292,16.292,0,0,1,67.8,41.172a4.846,4.846,0,0,1,.748-3.083" transform="translate(-37.93 0)" fill="#73a133"/>
    <path id="Path_71" data-name="Path 71" d="M366.608,192.355a1.051,1.051,0,0,0-1.127.993c-.032.28-.048.558-.064.853-.007.133-.015.27-.024.411v.127c0,.1,0,.215,0,.332,0,.063,0,.127-.007.19,0,.1-.01.21-.008.32a1.088,1.088,0,0,0,1.009,1.169l.083,0a1.064,1.064,0,0,0,1.082-1.037c.059-.725.092-1.487.1-2.263a1.045,1.045,0,0,0-1.039-1.1" transform="translate(-318.914 -167.894)" fill="#73a133"/>
    <path id="Path_72" data-name="Path 72" d="M135.706,369.632c-.654-.164-1.351-.321-2.192-.5a1.036,1.036,0,0,0-1.255.726,1.048,1.048,0,0,0,.048.82,1.01,1.01,0,0,0,.613.517c.564.173,1.142.314,1.651.438.2.049.391.1.571.141l.037.009h.069c1.031,0,1.257-.637,1.306-.914a1.069,1.069,0,0,0-.848-1.243" transform="translate(-115.387 -322.173)" fill="#73a133"/>
    <path id="Path_73" data-name="Path 73" d="M148.9,13.419l.109,0,.035,0c.154-.024.321-.047.5-.073.46-.066.981-.141,1.5-.239a1.085,1.085,0,1,0-.291-2.15c-.716.072-1.449.178-2.24.325a1.054,1.054,0,0,0-.872,1.239c.04.276.242.9,1.258.9" transform="translate(-128.853 -9.553)" fill="#73a133"/>
    <path id="Path_74" data-name="Path 74" d="M2.374,157.558a1.257,1.257,0,0,0,.2.016,1.091,1.091,0,0,0,1.069-.985c.121-.619.24-1.3.364-2.071a1.108,1.108,0,0,0-.81-1.281,1.075,1.075,0,0,0-.829.129,1.115,1.115,0,0,0-.493.718c-.118.535-.208,1.063-.288,1.529-.029.172-.057.332-.083.477l0,.047c-.031,1.056.462,1.356.88,1.421" transform="translate(-1.303 -133.724)" fill="#73a133"/>
    <path id="Path_75" data-name="Path 75" d="M194.984,12.333c.665.1,1.339.177,2,.231.04,0,.08,0,.119,0a1.1,1.1,0,1,0,.132-2.2c-.435-.062-.88-.113-1.272-.158l-.474-.055-.019,0h-.255c-1.029-.021-1.237.642-1.276.929a1.081,1.081,0,0,0,1.045,1.253" transform="translate(-169.268 -8.86)" fill="#73a133"/>
    <path id="Path_76" data-name="Path 76" d="M105.646,23.944a1.272,1.272,0,0,0,.45-.086,21.659,21.659,0,0,0,2.038-.869,1.419,1.419,0,0,0,.5-.5c.025-.037.054-.079.068-.1l.079-.092,0-.121a1.283,1.283,0,0,0-.5-1.063A1.067,1.067,0,0,0,107.3,21a21.387,21.387,0,0,0-2.086.882,1.051,1.051,0,0,0-.52,1.424,1.028,1.028,0,0,0,.954.634" transform="translate(-91.288 -18.272)" fill="#73a133"/>
    <path id="Path_77" data-name="Path 77" d="M270.132,347.889a1.083,1.083,0,0,0-1.06-.016c-.652.32-1.284.713-1.841,1.059a1.079,1.079,0,0,0-.445,1.488,1.046,1.046,0,0,0,.935.556,1.308,1.308,0,0,0,.622-.166c.549-.3,1.172-.635,1.747-1.018a1.688,1.688,0,0,0,.456-.513c.025-.038.045-.071.064-.1l.071-.089,0-.114a1.256,1.256,0,0,0-.547-1.092" transform="translate(-232.738 -303.524)" fill="#73a133"/>
    <path id="Path_78" data-name="Path 78" d="M181.174,375.713c-.237-.008-.475-.006-.706,0l-.3,0h-.318v.042H179.8a7.236,7.236,0,0,0-.868.015,1.083,1.083,0,0,0,.04,2.16q.246.006.5.006c.594,0,1.208-.025,1.831-.074a1.015,1.015,0,0,0,.716-.371,1.1,1.1,0,0,0-.844-1.774" transform="translate(-155.321 -327.932)" fill="#73a133"/>
    <path id="Path_79" data-name="Path 79" d="M10.187,247.7l-.035-.111a18.1,18.1,0,0,0-.672-1.9,1.554,1.554,0,0,0-.507-.566c-.04-.031-.081-.063-.1-.08l-.1-.093-.134,0a1.36,1.36,0,0,0-1.1.485.938.938,0,0,0-.145.828,23.138,23.138,0,0,0,.745,2.2,1.052,1.052,0,0,0,.989.687,1.161,1.161,0,0,0,.415-.079,1.085,1.085,0,0,0,.638-1.378" transform="translate(-6.425 -213.803)" fill="#73a133"/>
    <path id="Path_80" data-name="Path 80" d="M57.591,325.248a1,1,0,0,0-.244-.443c-.648-.615-1.2-1.124-1.789-1.608a1.067,1.067,0,0,0-1.437,1.554A16.6,16.6,0,0,0,56,326.436a.929.929,0,0,0,.559.189.961.961,0,0,0,.428-.1,1.211,1.211,0,0,0,.644-1.1l0-.066-.029-.064c0-.012-.009-.028-.015-.045" transform="translate(-46.993 -281.903)" fill="#73a133"/>
    <path id="Path_81" data-name="Path 81" d="M308.079,319.518a1.114,1.114,0,0,0-.547-.5,1.375,1.375,0,0,0-1.139.18,12.377,12.377,0,0,0-1.177,1.1c-.1.1-.2.2-.293.3a1.1,1.1,0,0,0-.13,1.588,1.05,1.05,0,0,0,.735.36h.052a1.277,1.277,0,0,0,.859-.364c.527-.487.974-.926,1.366-1.342a2.124,2.124,0,0,0,.321-.5c.041-.079.085-.163.136-.25l.114-.194-.145-.172c-.051-.06-.1-.131-.152-.206" transform="translate(-265.792 -278.407)" fill="#73a133"/>
    <path id="Path_82" data-name="Path 82" d="M35,76.1a1.037,1.037,0,0,0,.625.217,1.3,1.3,0,0,0,.98-.53c.462-.561.808-1,1.12-1.416a2.612,2.612,0,0,0,.263-.477c.038-.08.078-.167.126-.261l.1-.194-.145-.163c-.053-.059-.1-.125-.158-.194a1.912,1.912,0,0,0-.486-.486.98.98,0,0,0-1.3.268c-.442.52-.865,1.046-1.257,1.564a1.313,1.313,0,0,0-.306.97,1.056,1.056,0,0,0,.438.7" transform="translate(-30.156 -63.238)" fill="#73a133"/>
    <path id="Path_83" data-name="Path 83" d="M94.3,352.779c-.011-.017-.023-.042-.038-.07a1.156,1.156,0,0,0-.4-.494,21.277,21.277,0,0,0-2.042-1.1,1.081,1.081,0,0,0-1.006,1.907,21.28,21.28,0,0,0,2,1.073,1.1,1.1,0,0,0,.466.106,1,1,0,0,0,.538-.157,1.242,1.242,0,0,0,.535-1.082l0-.1Z" transform="translate(-78.805 -306.367)" fill="#73a133"/>
    <path id="Path_84" data-name="Path 84" d="M29.062,290.116a.409.409,0,0,0-.063-.172q-.174-.265-.345-.533c-.365-.568-.743-1.155-1.171-1.7-.258-.326-.936-.219-1.226-.093a.925.925,0,0,0-.509.559.915.915,0,0,0,.081.744,17.989,17.989,0,0,0,1.4,2.092A.991.991,0,0,0,28,291.3a1.191,1.191,0,0,0,.389-.059,1.241,1.241,0,0,0,.549-.506c.049-.069.1-.134.141-.187l.207-.239Z" transform="translate(-22.436 -250.941)" fill="#73a133"/>
    <path id="Path_85" data-name="Path 85" d="M13.924,114.775h.112l.087-.07c.018-.014.059-.04.1-.064a1.335,1.335,0,0,0,.509-.472,20.246,20.246,0,0,0,.921-2.029,1.037,1.037,0,0,0-.521-1.37,1.054,1.054,0,0,0-.819-.084,1.023,1.023,0,0,0-.6.524,20.953,20.953,0,0,0-.964,2.173.944.944,0,0,0,.114.875,1.286,1.286,0,0,0,1.064.516" transform="translate(-11.072 -96.571)" fill="#73a133"/>
    <path id="Path_86" data-name="Path 86" d="M357.445,238.778a1,1,0,0,0-1.266.641c-.264.753-.492,1.5-.679,2.209a1,1,0,0,0,.655,1.215,1.283,1.283,0,0,0,.464.092.915.915,0,0,0,.881-.6c.22-.558.4-1.122.571-1.667.068-.215.135-.426.2-.63l.021-.064-.007-.067a1.157,1.157,0,0,0-.842-1.133" transform="translate(-310.264 -208.383)" fill="#73a133"/>
    <path id="Path_87" data-name="Path 87" d="M66.852,45.48c.059.043.115.083.154.118l.132.118.17-.05c.073-.022.135-.036.189-.048a.885.885,0,0,0,.348-.136l.365-.269c.527-.387,1.071-.787,1.581-1.219a.971.971,0,0,0,.082-1.383,1,1,0,0,0-1.4-.271,16.815,16.815,0,0,0-1.884,1.444,1.2,1.2,0,0,0-.235,1.138,1.217,1.217,0,0,0,.5.558" transform="translate(-57.872 -36.799)" fill="#73a133"/>
    <path id="Path_88" data-name="Path 88" d="M337.526,281.366a1,1,0,0,0-1.4.266,19.6,19.6,0,0,0-1.257,2.068.938.938,0,0,0,.035.939,1.233,1.233,0,0,0,1.075.554h.089l.071-.04c.016-.008.037-.015.06-.025a1,1,0,0,0,.489-.337c.369-.55.847-1.281,1.262-2.057a1,1,0,0,0-.424-1.369" transform="translate(-292.191 -245.436)" fill="#73a133"/>
    <path id="Path_89" data-name="Path 89" d="M361.76,151.318a1.3,1.3,0,0,0,.253-.026,1.088,1.088,0,0,0,.875-1.21v-.039l-.008-.038c-.042-.185-.083-.379-.126-.58-.106-.5-.227-1.063-.383-1.609a1,1,0,0,0-1.257-.69,1.012,1.012,0,0,0-.826,1.167,22.064,22.064,0,0,0,.49,2.271.982.982,0,0,0,.982.751" transform="translate(-314.462 -128.388)" fill="#73a133"/>
    <path id="Path_90" data-name="Path 90" d="M226.626,367.131a23.132,23.132,0,0,0-2.289.622,1,1,0,0,0-.644,1.275,1.116,1.116,0,0,0,1.181.82l.053,0,.051-.015c.192-.057.392-.114.6-.172.538-.152,1.095-.31,1.652-.51a1.068,1.068,0,0,0-.6-2.022" transform="translate(-195.212 -320.426)" fill="#73a133"/>
  </g>
</svg>
